<svg version="1.1" id="Layer_1" xmlns="http://www.w3.org/2000/svg" xmlns:xlink="http://www.w3.org/1999/xlink" x="0px" y="0px"
	 width="100%" viewBox="0 0 352 352" enable-background="new 0 0 352 352" xml:space="preserve">
<path fill="#F97BAC" opacity="1.000000" stroke="none"
	d="
M73.598541,172.474213
	C59.839359,164.356506 51.888592,152.230057 46.531475,137.924332
	C40.831413,122.702789 37.299793,107.026627 35.526470,90.907555
	C35.282463,88.689644 35.227394,86.930626 38.173889,86.707794
	C58.004879,85.208115 77.109879,79.749222 96.540955,76.048988
	C110.277519,73.433159 123.443047,75.675537 135.331863,83.368309
	C137.973297,85.077469 140.209732,85.528435 143.179062,84.423340
	C168.228149,75.100861 193.302322,75.126907 218.356628,84.491341
	C220.374634,85.245590 222.269958,85.889473 224.456680,84.341461
	C238.855667,74.148262 254.878403,73.332581 271.301422,77.277763
	C287.173126,81.090492 303.094177,84.422386 319.298065,86.435249
	C325.688232,87.229042 326.082062,87.912903 325.051880,94.310722
	C323.093536,106.472389 320.844269,118.590202 316.913055,130.289642
	C312.917511,142.180435 308.174988,153.716766 299.091644,162.875076
	C296.258087,165.731995 293.316284,168.492859 289.829803,170.432007
	C286.364899,172.359146 286.045074,174.642563 287.005646,178.265244
	C289.733551,188.553207 292.092468,198.968903 292.276520,209.678558
	C292.916199,246.905762 274.289673,272.485840 238.235794,282.006378
	C198.818024,292.415192 159.087784,292.429626 119.789474,281.254211
	C80.530045,270.089813 64.208733,236.892410 69.265373,200.437057
	C70.342087,192.674591 72.020683,185.054916 73.829308,177.448868
	C74.200974,175.885834 75.216286,174.299942 73.598541,172.474213
M259.028839,121.731247
	C265.630524,109.014427 284.824524,102.585213 296.705872,109.135048
	C296.509827,111.485764 294.843872,112.945526 293.397125,114.536102
	C289.314423,119.024612 283.908447,121.082504 278.341888,122.995026
	C271.631622,125.300491 270.385803,128.396194 272.988800,134.736603
	C274.630768,138.736053 275.993500,142.850433 277.647217,146.844650
	C279.076416,150.296616 279.519409,154.189362 281.876190,157.246338
	C294.528015,151.182465 309.868195,118.106239 308.595825,99.827644
	C305.874084,99.431770 303.075775,99.162544 300.336792,98.602776
	C287.792419,96.038994 275.318634,93.083694 262.711548,90.889191
	C254.582626,89.474190 246.283615,89.248367 237.990601,94.126022
	C241.652481,97.062332 244.736160,99.521614 247.803970,102.000526
	C249.360275,103.258087 250.532852,104.722954 248.770081,106.585640
	C246.275162,109.221954 244.688751,112.653336 241.644073,114.931999
	C200.772003,84.192909 159.908035,84.204720 118.823769,115.035210
	C116.021866,111.474075 113.389534,108.128471 110.789215,104.823547
	C113.756104,99.913345 119.114853,98.235718 122.311523,94.255539
	C120.943855,92.134506 118.884308,91.858513 117.002853,91.384140
	C110.438545,89.729050 103.755661,89.658478 97.176018,90.921692
	C85.090904,93.241882 73.088600,95.989906 61.022038,98.411369
	C51.389977,100.344284 51.113354,100.307098 53.377140,109.916931
	C56.662495,123.863319 60.140255,137.804153 69.327354,149.394043
	C71.906242,152.647415 74.666321,155.693741 79.069992,157.454163
	C82.080864,149.466965 85.023209,141.737137 87.907112,133.985550
	C89.951279,128.491089 88.718391,125.602615 83.243881,123.294785
	C80.487091,122.132629 77.530296,121.428490 74.816261,120.184845
	C69.740005,117.858757 65.806900,114.386841 63.819714,108.665840
	C68.057137,107.166527 71.777893,107.263802 75.347214,107.182930
	C82.622719,107.018066 89.586197,108.429008 95.488731,113.216919
	C103.151955,119.433029 105.651321,130.035400 101.810860,138.978516
	C93.767029,157.709869 88.034958,177.171280 84.446266,197.221588
	C82.315201,209.127960 82.115028,221.103821 85.982864,232.775070
	C91.942734,250.759048 105.061844,261.570343 122.605850,266.647217
	C160.242691,277.538513 198.296799,277.579376 235.973282,267.293304
	C266.091095,259.070801 281.382843,235.283722 277.472900,204.467514
	C274.588135,181.731430 268.082977,159.833313 258.841736,138.897217
	C256.213501,132.942917 255.934204,127.944679 259.028839,121.731247
z"/>
<path fill="#F97BAC" opacity="1.000000" stroke="none"
	d="
M232.420502,198.880005
	C238.643967,222.936493 227.297852,244.433823 204.201355,252.609329
	C188.776230,258.069366 173.136505,258.126129 157.662445,253.062943
	C124.891319,242.340118 116.058891,203.853882 140.519913,179.041260
	C163.892258,155.332932 205.864243,158.367691 225.559998,185.192459
	C228.540604,189.251892 230.791656,193.685959 232.420502,198.880005
M206.178101,235.738983
	C222.652420,224.641037 224.671570,203.356354 210.578262,189.355499
	C195.484833,174.361084 168.158279,173.533920 152.211502,187.588776
	C134.138611,203.517471 138.195206,230.203705 160.583374,238.426682
	C175.525879,243.914948 190.917328,243.771698 206.178101,235.738983
z"/>
<path fill="#F97BAC" opacity="1.000000" stroke="none"
	d="
M225.875275,147.071411
	C231.193436,147.884232 234.363800,150.535110 235.533005,155.510574
	C236.567642,159.913254 234.925247,163.321365 231.735870,166.114319
	C228.376923,169.055786 224.480042,169.333023 220.608459,167.426682
	C216.724594,165.514328 214.711441,162.142502 214.756851,157.778748
	C214.804291,153.223038 216.917908,149.829453 221.144073,148.002838
	C222.479858,147.425491 224.029602,147.343216 225.875275,147.071411
z"/>
<path fill="#F97BAC" opacity="1.000000" stroke="none"
	d="
M146.490723,160.254272
	C143.523392,166.789490 139.649734,169.257095 134.010925,168.229630
	C129.450455,167.398651 126.609917,164.539871 125.816872,159.988510
	C125.048637,155.579544 126.163383,151.681107 130.102722,149.093002
	C133.909729,146.591827 138.007584,146.416351 141.848724,148.795456
	C145.879623,151.292068 147.520630,155.111984 146.490723,160.254272
z"/>
<path fill="#F97BAC" opacity="1.000000" stroke="none"
	d="
M156.138062,200.539032
	C158.833603,196.921326 161.729156,194.677109 166.071732,196.719131
	C170.350815,198.731339 172.457901,203.946030 171.344177,209.480438
	C170.382828,214.257523 166.823456,217.934143 162.979492,218.120667
	C159.284760,218.299957 155.553528,214.765732 154.889206,210.100708
	C154.446487,206.991928 154.368225,203.816528 156.138062,200.539032
z"/>
<path fill="#F97BAC" opacity="1.000000" stroke="none"
	d="
M206.532227,206.998917
	C205.562836,214.046524 201.951843,218.346954 197.498886,218.136292
	C193.470978,217.945740 189.891113,213.335510 189.629822,208.002350
	C189.319321,201.664658 192.920273,196.157959 197.550797,195.889389
	C202.062622,195.627701 205.626190,199.880905 206.532227,206.998917
z"/>
</svg>
