<svg version="1.2" xmlns="http://www.w3.org/2000/svg" viewBox="0 0 15 19" width="15" height="19"><style>.a{fill:#736858}</style><path fill-rule="evenodd" class="a" d="m1.1 4.8h12.8v12.4q0 0.4-0.1 0.7-0.1 0.3-0.3 0.6-0.3 0.2-0.6 0.4-0.3 0.1-0.6 0.1h-9.6q-0.3 0-0.6-0.1-0.3-0.2-0.6-0.4-0.2-0.3-0.3-0.6-0.1-0.3-0.1-0.7zm3.4 7.1h1.9v4.2q0 0.1 0.1 0.2 0 0.1 0.1 0.2 0.1 0.1 0.2 0.1 0.1 0.1 0.2 0.1h1q0.1 0 0.2-0.1 0.1 0 0.2-0.1 0.1-0.1 0.1-0.2 0.1-0.1 0.1-0.2v-4.2h1.9c0.5 0 0.7-0.6 0.4-1l-3-3.5q-0.1-0.1-0.2-0.2-0.1 0-0.2 0-0.1 0-0.2 0-0.1 0.1-0.2 0.2l-3 3.5c-0.3 0.4-0.1 1 0.4 1zm10.2-10.6q0.1 0 0.1 0.1 0.1 0.1 0.2 0.2 0 0.1 0 0.2v1.2q0 0.2 0 0.3-0.1 0.1-0.2 0.2 0 0-0.1 0.1-0.1 0-0.2 0h-14q-0.1 0-0.2 0-0.1-0.1-0.1-0.1-0.1-0.1-0.2-0.2 0-0.1 0-0.3v-1.2q0-0.1 0-0.2 0.1-0.1 0.2-0.2 0-0.1 0.1-0.1 0.1 0 0.2 0h4.1l0.3-0.7q0-0.1 0.1-0.2 0.1-0.1 0.2-0.2 0.1-0.1 0.2-0.1 0.1 0 0.2 0h3.8q0.1 0 0.2 0 0.1 0 0.2 0.1 0.1 0.1 0.2 0.2 0.1 0.1 0.1 0.2l0.3 0.7h4.1q0.1 0 0.2 0z"/></svg>
