<svg xmlns="http://www.w3.org/2000/svg" xmlns:xlink="http://www.w3.org/1999/xlink" x="0px" y="0px" viewBox="0 0 256 256" enable-background="new 0 0 256 256" xml:space="preserve">
<g><g>
    <path fill="#5354D2" d="M142.3,117.5c-45.1,0-85.7,27.1-103.7,64.6c19.5,39.1,58.6,64.6,103.7,64.6c45.1,0,85.7-27.1,103.7-64.6C226.5,144.6,187.4,117.5,142.3,117.5z M197.9,146c13.5,9,25.6,21,33.1,36.1c-9,13.5-19.5,27.1-33.1,36.1c-16.5,12-36.1,18-57.1,18c-19.5,0-39.1-6-57.1-18c-13.5-9-25.6-21-33.1-36.1c9-13.5,19.5-27.1,33.1-36.1c1.5,0,1.5-1.5,3-1.5c-1.5,6-3,13.5-3,21c0,33.1,25.6,60.1,57.1,60.1c31.6,0,57.1-27.1,57.1-60.1c0-7.5-1.5-13.5-3-21C196.4,146,197.9,146,197.9,146L197.9,146L197.9,146z M151.3,168.6c0,13.5-10.5,24.1-24.1,24.1s-24.1-10.5-24.1-24.1s10.5-24.1,24.1-24.1C139.3,144.6,151.3,155.1,151.3,168.6z"/><path fill="#000000" d="M142.3,104c-4.5,0-9,0-13.5,1.5h27.1C151.3,105.5,146.8,104,142.3,104z"/>
    <path fill="#5354D2" d="M28,233.2c-1.5,0-3-1.5-3-4.5v-30.1c-3-4.5-6-10.5-9-15c3-6,6-10.5,9-15V25.8c0-1.5,1.5-3,3-3h117.3v52.6c0,4.5,3,7.5,7.5,7.5h52.6v37.6c4.5,3,10.5,6,15,9V82.9c0-3-1.5-9-10.5-21c-4.5-7.5-12-16.5-19.5-24.1c-7.5-7.5-16.5-15-24.1-21c-12-7.5-18-9-21-9H28c-9,0-18,9-18,18v202.9c0,10.5,9,19.5,18,19.5h52.6c-9-4.5-16.5-9-24.1-15H28z M160.3,31.8c6,4.5,12,10.5,19.5,16.5l0,0c7.5,7.5,13.5,13.5,16.5,19.5h-36.1V31.8z"/>
    <path fill="#5354D2" d="M62.6,105.5c-4.5,0-7.5,3-7.5,7.5s3,7.5,7.5,7.5h15c15-7.5,33.1-13.5,51.1-15H62.6L62.6,105.5z"/>
    <path fill="#5354D2" d="M167.8,105.5h-13.5c6,0,12,1.5,18,3C172.3,107,170.8,105.5,167.8,105.5z"/>
    <path fill="#5354D2" d="M59.6,90.4h54.1c1.5,0,3-3,3-7.5c0-4.5-1.5-7.5-4.5-7.5H59.6c-3,0-4.5,3-4.5,7.5C55.1,87.4,56.6,90.4,59.6,90.4z"/>
    <path fill="#5354D2" d="M59.6,60.4h54.1c1.5,0,3-4.5,3-7.5c0-4.5-1.5-7.5-4.5-7.5H59.6c-3,0-4.5,3-4.5,7.5C55.1,55.9,56.6,60.4,59.6,60.4z"/></g></g>
</svg>
